<svg xmlns="http://www.w3.org/2000/svg" width="60.996" height="63.748" viewBox="0 0 60.996 63.748">
  <g id="employee-chair_100x100" data-name="employee-chair@100x100" transform="translate(1.998 1.998)">
    <path id="Path" d="M37.682,4.684A4.672,4.672,0,0,1,36.3,8a4.741,4.741,0,0,1-3.343,1.376H4.614A4.691,4.691,0,0,1,4.614,0H32.959a4.706,4.706,0,0,1,4.723,4.684Z" transform="translate(6.369 34.417)" fill="none" stroke="#000" stroke-linecap="round" stroke-linejoin="round" stroke-miterlimit="10" stroke-width="3.996"/>
    <path id="Path-2" data-name="Path" d="M1.334,0V14.575" transform="translate(23.822 44.425)" fill="none" stroke="#000" stroke-linecap="round" stroke-linejoin="round" stroke-miterlimit="10" stroke-width="3.996"/>
    <path id="Path-3" data-name="Path" d="M0,5.844A12.363,12.363,0,0,1,11.642.051,12.368,12.368,0,0,1,23.283,5.844" transform="translate(13.514 53.156)" fill="none" stroke="#000" stroke-linecap="round" stroke-linejoin="round" stroke-miterlimit="10" stroke-width="3.996"/>
    <path id="Path-4" data-name="Path" d="M0,0V7.2a8.858,8.858,0,0,0,4.185,7.811" transform="translate(3.281 27.215)" fill="none" stroke="#000" stroke-linecap="round" stroke-linejoin="round" stroke-miterlimit="10" stroke-width="3.996"/>
    <path id="Path-5" data-name="Path" d="M0,1.324H3.286" transform="translate(0 25.891)" fill="none" stroke="#000" stroke-linecap="round" stroke-linejoin="round" stroke-miterlimit="10" stroke-width="3.996"/>
    <path id="Path-6" data-name="Path" d="M0,7.811A8.855,8.855,0,0,0,4.182,0" transform="translate(42.819 34.411)" fill="none" stroke="#000" stroke-linecap="round" stroke-linejoin="round" stroke-miterlimit="10" stroke-width="3.996"/>
    <path id="Path-7" data-name="Path" d="M12.636,0A13.083,13.083,0,0,0,0,12.2V29.63H28.345" transform="translate(10.983 4.782)" fill="none" stroke="#000" stroke-linecap="round" stroke-linejoin="round" stroke-miterlimit="10" stroke-width="3.996"/>
    <ellipse id="Oval" cx="4.625" cy="4.591" rx="4.625" ry="4.591" transform="translate(37.837 6.561)" fill="none" stroke="#000" stroke-linecap="round" stroke-linejoin="round" stroke-miterlimit="10" stroke-width="3.996"/>
    <path id="Path-8" data-name="Path" d="M18.5,7.131a9.566,9.566,0,0,0-18.5,0" transform="translate(33.202 17.796)" fill="none" stroke="#000" stroke-linecap="round" stroke-linejoin="round" stroke-miterlimit="10" stroke-width="3.996"/>
    <ellipse id="Oval-2" data-name="Oval" cx="14.538" cy="14.432" rx="14.538" ry="14.432" transform="translate(27.924 0)" fill="none" stroke="#000" stroke-linecap="round" stroke-linejoin="round" stroke-miterlimit="10" stroke-width="3.996"/>
  </g>
</svg>
