<svg xmlns="http://www.w3.org/2000/svg" width="182" height="40.494" viewBox="0 0 182 40.494">
  <g id="GartnerPeerInsightsLogo_onlight" transform="translate(0 0.828)">
    <g id="Layer_2">
      <g id="Group">
        <g id="Group-2" data-name="Group" transform="translate(60.332 3.131)">
          <g id="Group-3" data-name="Group">
            <g id="Group-4" data-name="Group" transform="translate(0.334)">
              <path id="Path" d="M3.938,0,3.813,1.5H3.207A1.473,1.473,0,0,0,1.723,3.037V6.419H0V0H1.64l.042.806A1.87,1.87,0,0,1,3.363,0Z" transform="translate(39.118 3.215)" fill="#231f20"/>
              <path id="Path-2" data-name="Path" d="M5.87,6.576H4.136V3.183c0-.712-.063-1.6-1.055-1.6-.961,0-1.347.691-1.347,1.508v3.5H0V.157H1.609L1.65.974A2.18,2.18,0,0,1,3.583,0c1.744,0,2.3,1.246,2.3,2.545V6.576Z" transform="translate(25.194 3.058)" fill="#231f20"/>
              <path id="Path-3" data-name="Path" d="M3.457,6.733,3.332,8.2A4.371,4.371,0,0,1,2.1,8.346C.47,8.346,0,7.592,0,6.094V0H1.734V1.812H3.457l-.115,1.5h-1.6V5.958c0,.607.167.932.783.932A2.776,2.776,0,0,0,3.457,6.733Z" transform="translate(20.995 1.403)" fill="#231f20"/>
              <path id="Path-4" data-name="Path" d="M3.8,0,3.666,1.5H3.2A1.456,1.456,0,0,0,1.734,3.037V6.419H0V0H1.64l.031.806A1.889,1.889,0,0,1,3.363,0Z" transform="translate(16.629 3.215)" fill="#231f20"/>
              <path id="Path-5" data-name="Path" d="M8.837,8.922a7.272,7.272,0,0,1-3.9.942C2.068,9.78,0,7.99,0,4.974A4.761,4.761,0,0,1,4.941,0a5.408,5.408,0,0,1,3.75,1.246L7.468,2.482a3.754,3.754,0,0,0-2.643-.8,2.981,2.981,0,0,0-2.9,3.183A3.041,3.041,0,0,0,4.951,8.21,4.449,4.449,0,0,0,7,7.864V5.875H5.066L5.2,4.241H8.837Z" fill="#231f20"/>
              <path id="Shape" d="M0,3.371A3.226,3.226,0,0,1,3.3,0C5.359,0,6.486,1.247,6.486,3.466V3.99H1.744A1.587,1.587,0,0,0,3.322,5.33a2.151,2.151,0,0,0,1.786-.8l1.129.859A3.449,3.449,0,0,1,3.374,6.744,3.237,3.237,0,0,1,0,3.371Z" transform="translate(31.848 3.047)" fill="#231f20"/>
              <path id="Shape-2" data-name="Shape" d="M0,4.806C-.031,2.67,2.392,2.524,3.918,2.524h.3V2.429c0-.7-.47-1.089-1.336-1.089a2.546,2.546,0,0,0-1.714.68l-.992-1A4.355,4.355,0,0,1,3.029,0C5.014,0,5.891.922,5.891,2.377V6.586H4.367l-.042-.628a2.475,2.475,0,0,1-2.005.786A2.049,2.049,0,0,1,0,4.806Z" transform="translate(9.662 3.058)" fill="#231f20"/>
            </g>
            <g id="Group-5" data-name="Group" transform="translate(0 15.225)">
              <path id="Shape-3" data-name="Shape" d="M0,15.225V.251H1.776V1.717h.041A3.633,3.633,0,0,1,5.264,0c3.322,0,4.972,2.639,4.972,5.7s-1.63,5.634-4.93,5.634a4.135,4.135,0,0,1-3.489-1.7H1.776v5.592Z" transform="translate(0 3.874)" fill="#5a3a95"/>
              <path id="Shape-4" data-name="Shape" d="M0,5.633C0,2.388,2.131,0,5.076,0,8.9,0,10.069,3.581,9.965,6.2H1.88A3.186,3.186,0,0,0,5.243,9.76a2.605,2.605,0,0,0,2.8-2.116H9.8A4.356,4.356,0,0,1,5.181,11.33C1.734,11.33.1,8.942,0,5.633Z" transform="translate(11.741 3.874)" fill="#5a3a95"/>
              <path id="Shape-5" data-name="Shape" d="M0,5.633C0,2.388,2.131,0,5.076,0,8.9,0,10.069,3.581,9.965,6.2H1.88A3.186,3.186,0,0,0,5.243,9.76a2.605,2.605,0,0,0,2.8-2.116H9.8A4.356,4.356,0,0,1,5.181,11.33C1.734,11.33.1,8.942,0,5.633Z" transform="translate(23.795 3.874)" fill="#5a3a95"/>
              <path id="Path-6" data-name="Path" d="M0,.255H1.671V2.537h.042A3.926,3.926,0,0,1,5.682,0V1.888c-2.862,0-3.907,1.634-3.907,4.377v4.817H0Z" transform="translate(36.371 3.871)" fill="#5a3a95"/>
              <path id="Shape-6" data-name="Shape" d="M0,14.953V4.189H.794V14.953Zm0-12.8V0H.794V2.157Z" transform="translate(45.5)" fill="#5a3a95"/>
              <path id="Path-7" data-name="Path" d="M0,.251H.794v2.3H.836A3.978,3.978,0,0,1,4.68,0C8.461,0,8.5,3.037,8.5,4.356v6.66H7.709V4.209c0-1.11-.125-3.518-3.05-3.518-2.4,0-3.865,1.864-3.865,4.5v5.822H0Z" transform="translate(49.856 3.937)" fill="#5a3a95"/>
              <path id="Path-8" data-name="Path" d="M.794,7.435a3.286,3.286,0,0,0,3.551,3.141c1.4,0,3.405-.419,3.405-2.283,0-1.822-1.838-2.094-3.677-2.471-1.859-.377-3.7-.859-3.7-3.058C.376.628,2.444,0,4.262,0,6.539,0,8.231.984,8.231,3.435H7.437C7.416,1.487,6.058.691,4.262.691,2.8.691,1.17,1.236,1.17,2.764c0,1.717,1.838,1.99,3.572,2.366,2.131.4,3.8.9,3.8,3.162,0,2.325-2.319,2.974-4.2,2.974C1.9,11.267.063,9.948,0,7.435Z" transform="translate(61.022 3.937)" fill="#5a3a95"/>
              <path id="Shape-7" data-name="Shape" d="M0,14.953V4.189H.794V14.953Zm0-12.8V0H.794V2.157Z" transform="translate(72.71)" fill="#5a3a95"/>
              <path id="Shape-8" data-name="Shape" d="M4.721,15.12c-2.3,0-4.073-.859-4.2-3.351h.794c.167,1.906,1.671,2.66,3.426,2.66a3.472,3.472,0,0,0,3.823-3.791V8.168H8.523a4.032,4.032,0,0,1-3.885,2.451C1.483,10.618,0,8.293,0,5.3,0,2.451,1.608,0,4.638,0A4.017,4.017,0,0,1,8.523,2.492h.042V.251h.794v10.2c0,.823,0,4.674-4.391,4.674C4.887,15.124,4.805,15.123,4.721,15.12Z" transform="translate(76.084 3.937)" fill="#5a3a95"/>
              <path id="Path-9" data-name="Path" d="M.794,0V6.492H.836A3.978,3.978,0,0,1,4.68,3.937C8.461,3.937,8.5,6.974,8.5,8.293v6.66H7.709V8.147c0-1.11-.125-3.518-3.05-3.518-2.4,0-3.865,1.864-3.865,4.5v5.822H0V0Z" transform="translate(88.295)" fill="#5a3a95"/>
              <path id="Path-10" data-name="Path" d="M5.118,4.042H2.778V11.56c0,1.738.815,1.906,2.319,1.864v.691c-1.629.1-3.2-.126-3.113-2.555V4.042H0V3.351H1.985V0h.794V3.351h2.34Z" transform="translate(98.803 0.838)" fill="#5a3a95"/>
              <path id="Path-11" data-name="Path" d="M.794,7.435a3.286,3.286,0,0,0,3.551,3.141c1.4,0,3.405-.419,3.405-2.283,0-1.822-1.838-2.094-3.677-2.471-1.859-.377-3.7-.859-3.7-3.058C.376.628,2.444,0,4.262,0,6.539,0,8.231.984,8.231,3.435H7.437C7.416,1.487,6.058.691,4.262.691,2.8.691,1.17,1.236,1.17,2.764c0,1.717,1.838,1.99,3.572,2.366,2.131.4,3.8.9,3.8,3.162,0,2.325-2.319,2.974-4.2,2.974C1.9,11.267.063,9.948,0,7.435Z" transform="translate(105.801 3.937)" fill="#5a3a95"/>
            </g>
          </g>
          <g id="Group-6" data-name="Group" transform="translate(116.048 27.152)">
            <path id="Path-12" data-name="Path" d="M0,0H2.4V.251H1.347v2.8H1.055V.251H0V0Z" fill="#231f20"/>
            <path id="Path-13" data-name="Path" d="M.01,0H.439L1.483,2.66,2.528,0h.428V3.037H2.664V.408h-.01L1.619,3.037H1.347L.3.408H.292V3.037H0V0Z" transform="translate(2.664)" fill="#231f20"/>
          </g>
        </g>
        <g id="Group-7" data-name="Group">
          <path id="Path-14" data-name="Path" d="M2.611,13.5,7.03,11.236,11.4,13.6l-.783-4.911,3.6-3.435L9.307,4.482,7.166,0,4.92,4.429,0,5.089,3.51,8.607Z" transform="translate(30.584 9.874)" fill="#f0c61c"/>
          <path id="Path-15" data-name="Path" d="M2.611,13.5,7.04,11.236,11.4,13.6l-.773-4.911,3.593-3.435L9.307,4.482,7.166,0,4.92,4.429,0,5.089,3.51,8.607Z" transform="translate(15.292 9.874)" fill="#f0c61c"/>
          <path id="Path-16" data-name="Path" d="M2.622,13.5,7.04,11.236,11.406,13.6l-.783-4.911,3.593-3.435-4.9-.775L7.176,0,4.92,4.429,0,5.089,3.51,8.607Z" transform="translate(0 9.874)" fill="#f0c61c"/>
          <path id="Path-17" data-name="Path" d="M.376,7.979A21.317,21.317,0,0,1,17.444,0c11.25,0,20.368,7.874,20.368,17.581A15.966,15.966,0,0,1,33.759,28.1L37.812,38l-10.56-5.016a22.9,22.9,0,0,1-9.819,2.178c-7.4,0-13.861-3.393-17.433-8.482" transform="translate(10.414)" fill="none" stroke="#5a3a95" stroke-linecap="round" stroke-miterlimit="10" stroke-width="1.656"/>
        </g>
      </g>
    </g>
  </g>
</svg>
