<svg xmlns="http://www.w3.org/2000/svg" width="23.63" height="24.143" viewBox="0 0 23.63 24.143">
  <g id="icons_read_100x100" data-name="icons/read@100x100" transform="translate(1.31 1.31)">
    <g id="icons_read_100x100-2" data-name="icons/read@100x100" transform="translate(0 0)">
      <g id="Group">
        <path id="Path" d="M6.918,16.3a19.575,19.575,0,0,0-5.6-.991A1.393,1.393,0,0,1,0,13.9V1.405A1.4,1.4,0,0,1,1.485,0c5.91.309,9.01,2.422,9.01,4.031,0-1.6,3.473-3.694,9-4.022a1.392,1.392,0,0,1,1.5,1.4V13.2" transform="translate(0 0)" fill="none" stroke="#000" stroke-linecap="round" stroke-linejoin="round" stroke-miterlimit="10" stroke-width="2.619"/>
        <path id="Path-2" data-name="Path" d="M.889,0V3.638" transform="translate(9.605 4.034)" fill="none" stroke="#000" stroke-linecap="round" stroke-linejoin="round" stroke-miterlimit="10" stroke-width="2.619"/>
      </g>
      <path id="Path-3" data-name="Path" d="M5.2,1.216A22.524,22.524,0,0,0,0,0" transform="translate(2.81 4.165)" fill="none" stroke="#000" stroke-linecap="round" stroke-linejoin="round" stroke-miterlimit="10" stroke-width="2.619"/>
      <path id="Path-4" data-name="Path" d="M0,.9c.327-.056.654-.1,1-.14" transform="translate(17.413 6.98)" fill="none" stroke="#000" stroke-linecap="round" stroke-linejoin="round" stroke-miterlimit="10" stroke-width="2.619"/>
      <path id="Path-5" data-name="Path" d="M5.2,1.207A23.251,23.251,0,0,0,0,0" transform="translate(2.81 7.737)" fill="none" stroke="#000" stroke-linecap="round" stroke-linejoin="round" stroke-miterlimit="10" stroke-width="2.619"/>
      <path id="Path-6" data-name="Path" d="M5.247,1.225A23.512,23.512,0,0,0,0,0" transform="translate(2.764 11.507)" fill="none" stroke="#000" stroke-linecap="round" stroke-linejoin="round" stroke-miterlimit="10" stroke-width="2.619"/>
      <path id="Path-7" data-name="Path" d="M0,1.225A23.484,23.484,0,0,1,5.256,0" transform="translate(13.202 4.165)" fill="none" stroke="#000" stroke-linecap="round" stroke-linejoin="round" stroke-miterlimit="10" stroke-width="2.619"/>
      <path id="Path-8" data-name="Path" d="M12.7,12.053l.093-1.048A2.805,2.805,0,0,0,10.6,8.013L7.2,7.255V1.887a1.755,1.755,0,1,0-3.5,0v8.6l-1.4-1.038a1.43,1.43,0,0,0-2,2.011l.439.589" transform="translate(8.2 8.947)" fill="none" stroke="#000" stroke-linecap="round" stroke-linejoin="round" stroke-miterlimit="10" stroke-width="2.619"/>
    </g>
  </g>
</svg>
