<svg xmlns="http://www.w3.org/2000/svg" width="39.747" height="42.688" viewBox="0 0 39.747 42.688">
  <g id="icon_management-consulting_100x100" data-name="icon/management-consulting@100x100" transform="translate(1.873 1.344)">
    <g id="icon_management-consulting_100x100-2" data-name="icon/management-consulting@100x100">
      <ellipse id="Oval" cx="3.935" cy="3.882" rx="3.935" ry="3.882" transform="translate(0 3.854)" fill="none" stroke="#f2f2ed" stroke-linecap="round" stroke-linejoin="round" stroke-miterlimit="10" stroke-width="2.688"/>
      <path id="Path" d="M10.141,4.042A6.716,6.716,0,0,0,5.75.245,6.82,6.82,0,0,0,0,1.252" transform="translate(0 12.726)" fill="none" stroke="#f2f2ed" stroke-linecap="round" stroke-linejoin="round" stroke-miterlimit="10" stroke-width="2.688"/>
      <ellipse id="Oval-2" data-name="Oval" cx="3.935" cy="3.882" rx="3.935" ry="3.882" transform="translate(28.13 3.854)" fill="none" stroke="#f2f2ed" stroke-linecap="round" stroke-linejoin="round" stroke-miterlimit="10" stroke-width="2.688"/>
      <path id="Path-2" data-name="Path" d="M0,4.042A6.716,6.716,0,0,1,4.391.245a6.82,6.82,0,0,1,5.75,1.007" transform="translate(25.859 12.726)" fill="none" stroke="#f2f2ed" stroke-linecap="round" stroke-linejoin="round" stroke-miterlimit="10" stroke-width="2.688"/>
      <ellipse id="Oval-3" data-name="Oval" cx="6.013" cy="5.931" rx="6.013" ry="5.931" transform="translate(11.987 0)" fill="none" stroke="#f2f2ed" stroke-linecap="round" stroke-linejoin="round" stroke-miterlimit="10" stroke-width="2.688"/>
      <path id="Path-3" data-name="Path" d="M20.8,4.536a14.195,14.195,0,0,0-20.8,0" transform="translate(7.598 14.501)" fill="none" stroke="#f2f2ed" stroke-linecap="round" stroke-linejoin="round" stroke-miterlimit="10" stroke-width="2.688"/>
      <path id="Path-4" data-name="Path" d="M14.254,0A7.082,7.082,0,0,1,7.127,6.92,7.082,7.082,0,0,1,0,0" transform="translate(10.872 23.295)" fill="none" stroke="#f2f2ed" stroke-linecap="round" stroke-linejoin="round" stroke-miterlimit="10" stroke-width="2.688"/>
      <path id="Path-5" data-name="Path" d="M33.872,0V2.643l-3.063.6h0a13.817,13.817,0,0,1-1.753,4.141h0L30.8,9.956l-3.784,3.733-2.6-1.722h0a14.054,14.054,0,0,1-4.205,1.74h0l-.605,3.006H14.274l-.607-3.006h0a14.063,14.063,0,0,1-4.2-1.74h0L6.856,13.681,3.072,9.948,4.818,7.382h0A13.821,13.821,0,0,1,3.063,3.24h0L0,2.636V0" transform="translate(1.054 23.288)" fill="none" stroke="#f2f2ed" stroke-linecap="round" stroke-linejoin="round" stroke-miterlimit="10" stroke-width="2.688"/>
    </g>
  </g>
</svg>
