<svg xmlns="http://www.w3.org/2000/svg" width="43.208" height="43.171" viewBox="0 0 43.208 43.171">
  <g id="icon_accounting-hand_100x100" data-name="icon/accounting-hand@100x100" transform="translate(1.344 1.344)">
    <g id="icon_accounting-hand_100x100-2" data-name="icon/accounting-hand@100x100">
      <g id="Group" transform="translate(10.222 3.111)">
        <path id="Path" d="M.373,9.443A3.947,3.947,0,0,0,3.68,11.008c2.027,0,3.662-1.227,3.662-2.756S5.707,5.514,3.68,5.514,0,4.27,0,2.759,1.653,0,3.68,0A3.947,3.947,0,0,1,6.987,1.568" transform="translate(0 1.828)" fill="none" stroke="#f2f2ed" stroke-linecap="round" stroke-linejoin="round" stroke-miterlimit="10" stroke-width="2.688"/>
        <path id="Path-2" data-name="Path" d="M.889,0V1.831" transform="translate(2.791 12.836)" fill="none" stroke="#f2f2ed" stroke-linecap="round" stroke-linejoin="round" stroke-miterlimit="10" stroke-width="2.688"/>
        <path id="Path-3" data-name="Path" d="M.889,0V1.831" transform="translate(2.791)" fill="none" stroke="#f2f2ed" stroke-linecap="round" stroke-linejoin="round" stroke-miterlimit="10" stroke-width="2.688"/>
      </g>
      <path id="Path-4" data-name="Path" d="M12,22.667,9.333,18.684V9.333C9.333,5.778,2.578,1.973,0,0" transform="translate(28 13.333)" fill="none" stroke="#f2f2ed" stroke-linecap="round" stroke-linejoin="round" stroke-miterlimit="10" stroke-width="2.688"/>
      <path id="Path-5" data-name="Path" d="M10.435,5.875,3.964.684A2.319,2.319,0,1,0,.675,3.955l6.293,7.111V15.51c0,2.1,2.987,5.333,2.987,5.333" transform="translate(20.996 19.085)" fill="none" stroke="#f2f2ed" stroke-linecap="round" stroke-linejoin="round" stroke-miterlimit="10" stroke-width="2.688"/>
      <path id="Path-6" data-name="Path" d="M8.889,22.222V2.436A2.436,2.436,0,0,0,6.453,0H0" transform="translate(19.111)" fill="none" stroke="#f2f2ed" stroke-linecap="round" stroke-linejoin="round" stroke-miterlimit="10" stroke-width="2.688"/>
      <path id="Path-7" data-name="Path" d="M22.667,40H2.453A2.453,2.453,0,0,1,0,37.564V2.436A2.453,2.453,0,0,1,2.453,0H8.444" fill="none" stroke="#f2f2ed" stroke-linecap="round" stroke-linejoin="round" stroke-miterlimit="10" stroke-width="2.688"/>
      <path id="Path-8" data-name="Path" d="M11.111,0H1.333A1.351,1.351,0,0,0,0,1.333v9.778a1.351,1.351,0,0,0,1.333,1.333h16" transform="translate(5.333 22.222)" fill="none" stroke="#f2f2ed" stroke-linecap="round" stroke-linejoin="round" stroke-miterlimit="10" stroke-width="2.688"/>
      <path id="Path-9" data-name="Path" d="M0,.889H13.778" transform="translate(5.333 27.556)" fill="none" stroke="#f2f2ed" stroke-linecap="round" stroke-linejoin="round" stroke-miterlimit="10" stroke-width="2.688"/>
      <path id="Path-10" data-name="Path" d="M.889,0V12.444" transform="translate(12.444 22.222)" fill="none" stroke="#f2f2ed" stroke-linecap="round" stroke-linejoin="round" stroke-miterlimit="10" stroke-width="2.688"/>
    </g>
  </g>
</svg>
