<svg xmlns="http://www.w3.org/2000/svg" width="43.801" height="43.256" viewBox="0 0 43.801 43.256">
  <g id="icon_search-graph_100x100" data-name="icon/search-graph@100x100" transform="translate(1.9 1.356)">
    <g id="icon_search-graph_100x100-2" data-name="icon/search-graph@100x100">
      <path id="Path" d="M26.059,0a16.112,16.112,0,0,1-9.065,14.487A16.112,16.112,0,0,1,0,12.673" transform="translate(6.188 16.113)" fill="none" stroke="#f2f2ed" stroke-linecap="round" stroke-linejoin="round" stroke-miterlimit="10" stroke-width="2.688"/>
      <path id="Path-2" data-name="Path" d="M.064,17.567Q0,16.856,0,16.113A16.11,16.11,0,0,1,27.36,4.579" transform="translate(0.025)" fill="none" stroke="#f2f2ed" stroke-linecap="round" stroke-linejoin="round" stroke-miterlimit="10" stroke-width="2.688"/>
      <path id="Path-3" data-name="Path" d="M0,0,12.471,12.5" transform="translate(27.529 27.504)" fill="none" stroke="#f2f2ed" stroke-linecap="round" stroke-linejoin="round" stroke-miterlimit="10" stroke-width="2.688"/>
      <path id="Path-4" data-name="Path" d="M8.546,8.57V0H0" transform="translate(31.454 1.334)" fill="none" stroke="#f2f2ed" stroke-linecap="round" stroke-linejoin="round" stroke-miterlimit="10" stroke-width="2.688"/>
      <path id="Path-5" data-name="Path" d="M0,26.666,14.791,11.881a1.685,1.685,0,0,1,2.38,0l4.348,4.35a1.682,1.682,0,0,0,2.38,0L40,0" transform="translate(0 1.334)" fill="none" stroke="#f2f2ed" stroke-linecap="round" stroke-linejoin="round" stroke-miterlimit="10" stroke-width="2.688"/>
    </g>
  </g>
</svg>
