<svg id="Logos_m-files-colour" data-name="Logos/m-files-colour" xmlns="http://www.w3.org/2000/svg" xmlns:xlink="http://www.w3.org/1999/xlink" width="115" height="26.667" viewBox="0 0 115 26.667">
  <defs>
    <clipPath id="clip-path">
      <path id="Clip_12" data-name="Clip 12" d="M0,0H15.474V19.806H0Z" fill="none"/>
    </clipPath>
  </defs>
  <path id="Fill_1" data-name="Fill 1" d="M1.946,3.992a1.9,1.9,0,0,1-1.4-.6A2.054,2.054,0,0,1,0,2,1.983,1.983,0,0,1,1.963,0,1.977,1.977,0,0,1,3.918,1.994a1.983,1.983,0,0,1-1.963,2ZM1.959.331A1.642,1.642,0,0,0,.349,2a1.634,1.634,0,0,0,1.6,1.658,1.645,1.645,0,0,0,1.61-1.669A1.637,1.637,0,0,0,1.959.331Zm-.188,2.6H1.226V1.07h.787c.233,0,.777.054.783.555a.46.46,0,0,1-.282.462.548.548,0,0,1,.253.4l.1.445H2.326l-.069-.3C2.176,2.3,2.012,2.3,1.88,2.3H1.771v.631Zm0-1.423v.355l.243.005c.157,0,.248-.067.248-.185s-.086-.17-.248-.175Z" transform="translate(111.081 22.274)" fill="#54555a"/>
  <path id="Fill_3" data-name="Fill 3" d="M0,.187,7.621.159Z" transform="translate(30.736 16.208)" fill="#fff"/>
  <path id="Fill_5" data-name="Fill 5" d="M5.28,2.656A2.64,2.64,0,1,1,2.64,0,2.648,2.648,0,0,1,5.28,2.656" transform="translate(61.35 0)" fill="#0070ce"/>
  <path id="Fill_7" data-name="Fill 7" d="M7.756,4.949a.479.479,0,0,0,.47-.391L8.9.569h0A.491.491,0,0,0,8.907.482.481.481,0,0,0,8.432,0h-7.3A.479.479,0,0,0,.673.409L.007,4.38h0a.478.478,0,0,0,.471.569Z" transform="translate(30.287 11.531)" fill="#54555a"/>
  <path id="Fill_9" data-name="Fill 9" d="M4.46,26.666h.007a.48.48,0,0,0,.469-.388L9.361.569h0A.487.487,0,0,0,9.369.482.481.481,0,0,0,8.89,0h-4a.48.48,0,0,0-.469.391L.007,26.1h0a.478.478,0,0,0,.471.569H4.46Z" transform="translate(65.801 0)" fill="#54555a"/>
  <g id="Group_13" data-name="Group 13" transform="translate(95.196 6.861)">
    <path id="Clip_12-2" data-name="Clip 12" d="M0,0H15.474V19.806H0Z" fill="none"/>
    <g id="Group_13-2" data-name="Group 13" clip-path="url(#clip-path)">
      <path id="Fill_11" data-name="Fill 11" d="M11.791,8.989a18.708,18.708,0,0,0-2.124-.518c-.353-.072-.706-.143-1.055-.224A5.8,5.8,0,0,1,6.166,7.134a1.624,1.624,0,0,1-.52-1.9,1.993,1.993,0,0,1,1.364-1.3,3.607,3.607,0,0,1,2.77.082,1.9,1.9,0,0,1,1.027,1.364h0a.493.493,0,0,0,.468.408L15,5.8a.48.48,0,0,0,.478-.467,6.833,6.833,0,0,0-.055-.7,5.068,5.068,0,0,0-2.363-3.5,8.991,8.991,0,0,0-6.472-.9C3.561.824,1.94,2.294,1.1,4.828a4.648,4.648,0,0,0-.19,2.05,4.248,4.248,0,0,0,2,2.876,10.634,10.634,0,0,0,4.631,1.719A3.959,3.959,0,0,1,9.823,12.5a1.589,1.589,0,0,1,.5,1.785A2.645,2.645,0,0,1,8.88,15.748a3.983,3.983,0,0,1-2.577.194,2.257,2.257,0,0,1-1.6-1.99.479.479,0,0,0-.467-.4H.473A.48.48,0,0,0,0,14.029,6.365,6.365,0,0,0,.38,16.2c.916,2.052,2.682,3.222,5.47,3.543a9.708,9.708,0,0,0,3.419-.2,7.793,7.793,0,0,0,4.615-2.891,5.608,5.608,0,0,0,1.075-4.337,4.164,4.164,0,0,0-3.168-3.318" fill="#54555a"/>
    </g>
  </g>
  <path id="Fill_14" data-name="Fill 14" d="M15.635,16.224l.719-3.906a.478.478,0,0,0-.462-.568l-7.887.005h0a.481.481,0,0,1-.48-.482.4.4,0,0,1,.006-.062L8.561,5.235h0a.479.479,0,0,1,.466-.4h8.766a.48.48,0,0,0,.47-.4h0L18.946.566a.452.452,0,0,0,.009-.083A.481.481,0,0,0,18.475,0H4.887a.479.479,0,0,0-.468.407L.007,26.112A.475.475,0,0,0,0,26.184a.481.481,0,0,0,.48.482H4.47a.479.479,0,0,0,.469-.387l1.6-9.269a.478.478,0,0,1,.457-.384l8.179-.01a.479.479,0,0,0,.465-.392" transform="translate(39.852)" fill="#54555a"/>
  <path id="Fill_16" data-name="Fill 16" d="M10.31,20.252c.4,1.715,1.271,3.186,3.085,3.015a4.011,4.011,0,0,0,2.814-2.129l.773-1.206,5.408-9.105a.3.3,0,0,1,.244-.141.314.314,0,0,1,.32.3L20.453,26.1a.494.494,0,0,0-.008.084.481.481,0,0,0,.48.482h3.989a.48.48,0,0,0,.471-.395h0L29.808.566a.493.493,0,0,0,.008-.084A.481.481,0,0,0,29.337,0H23.989a.476.476,0,0,0-.411.244l-8.8,15.162h0a.477.477,0,0,1-.878-.141h0L10.678.385h0A.479.479,0,0,0,10.218,0H4.889a.479.479,0,0,0-.466.393h0L.008,26.107A.454.454,0,0,0,0,26.184a.481.481,0,0,0,.48.482H4.469a.479.479,0,0,0,.47-.394l2.543-14.7a.3.3,0,0,1,.133-.172.312.312,0,0,1,.428.114.2.2,0,0,1,.016.047L9.846,18.45Z" transform="translate(0 0)" fill="#0070ce"/>
  <path id="Fill_18" data-name="Fill 18" d="M8.663,19.861a9.486,9.486,0,0,1-4.5-1.049,7.5,7.5,0,0,1-3.069-3,8.892,8.892,0,0,1-1.1-4.4v-.027c0-.086,0-.175,0-.268v-.009A14.662,14.662,0,0,1,.11,9.437l0-.038,0-.038c0-.028.008-.056.011-.083s.008-.059.012-.088a.06.06,0,0,0,0-.015A10.459,10.459,0,0,1,1.226,5.934,10.9,10.9,0,0,1,5.1,1.565,9.735,9.735,0,0,1,10.4,0a8.829,8.829,0,0,1,4.5,1.147A7.877,7.877,0,0,1,17.97,4.422a10.479,10.479,0,0,1,1.1,4.843c0,.035,0,.07,0,.1v.052a13.138,13.138,0,0,1-.076,1.571.475.475,0,0,1-.463.423H5.115a.479.479,0,0,0-.469.454,4.5,4.5,0,0,0,1.125,2.649,4.147,4.147,0,0,0,3.131,1.3,4.289,4.289,0,0,0,2.83-1.058,8.568,8.568,0,0,0,.972-.929.487.487,0,0,1,.367-.174h4.387a.481.481,0,0,1,.479.482.472.472,0,0,1-.051.21l-.016.031c-.009.018-.018.036-.029.053a10.413,10.413,0,0,1-9.178,5.427ZM10.346,3.7h-.078A5.57,5.57,0,0,0,5.382,6.775c-.173.3-.368.638-.2.939s.536.3.831.3h7.91c.365,0,.737-.026.92-.317s.053-.639-.112-1A4.657,4.657,0,0,0,10.346,3.7Z" transform="translate(74.806 6.767)" fill="#54555a"/>
  <path id="Fill_20" data-name="Fill 20" d="M8.179.552C8.212.306,7.895.181,7.7.337L7.685.349A3.146,3.146,0,0,1,3.859.14C3.819.112,3.775.083,3.74.056A.273.273,0,0,0,3.3.24L.017,19.168l-.009.048a.026.026,0,0,0,0,.006L0,19.263H0c0,.01,0,.02,0,.031a.481.481,0,0,0,.48.482H4.468a.449.449,0,0,0,.471-.4Z" transform="translate(57.426 6.891)" fill="#54555a"/>
</svg>
