<svg xmlns="http://www.w3.org/2000/svg" width="63.996" height="38.996" viewBox="0 0 63.996 38.996">
  <g id="partner-handshake_100x100" data-name="partner-handshake@100x100" transform="translate(1.998 1.998)">
    <g id="Group" transform="translate(0 2.599)">
      <path id="Path" d="M14.773,0,0,2.917" transform="translate(37.333 20.708)" fill="none" stroke="#000" stroke-linecap="round" stroke-linejoin="round" stroke-miterlimit="10" stroke-width="3.996"/>
      <path id="Path-2" data-name="Path" d="M0,12.223H6.533l9.36,10.447a3.769,3.769,0,0,0,2.667,1.22A122.965,122.965,0,0,0,33.867,10.924c.293-.822-.267-1.644-.773-2.333L26.4,0" transform="translate(7.813 8.511)" fill="none" stroke="#000" stroke-linecap="round" stroke-linejoin="round" stroke-miterlimit="10" stroke-width="3.996"/>
      <path id="Path-3" data-name="Path" d="M18.213,1.856l-.933-.8A5.782,5.782,0,0,0,14,0a5.574,5.574,0,0,0-2.08.4L0,5.117" transform="translate(8)" fill="none" stroke="#000" stroke-linecap="round" stroke-linejoin="round" stroke-miterlimit="10" stroke-width="3.996"/>
      <path id="Path-4" data-name="Path" d="M0,0H5.333A2.661,2.661,0,0,1,8,2.439V19.462a2.661,2.661,0,0,1-2.667,2.413H0" transform="translate(0 0.583)" fill="none" stroke="#000" stroke-linecap="round" stroke-linejoin="round" stroke-miterlimit="10" stroke-width="3.996"/>
      <path id="Path-5" data-name="Path" d="M8,21.875H2.667A2.661,2.661,0,0,1,0,19.462V2.439A2.661,2.661,0,0,1,2.667,0H8" transform="translate(52 0.583)" fill="none" stroke="#000" stroke-linecap="round" stroke-linejoin="round" stroke-miterlimit="10" stroke-width="3.996"/>
    </g>
    <path id="Path-6" data-name="Path" d="M14.939,10.076,5.739,13.1a4.328,4.328,0,0,1-3.36-7.955L11.339.663A6.162,6.162,0,0,1,14.166,0,6.567,6.567,0,0,1,16.3.371L29.632,5.2" transform="translate(22.394)" fill="none" stroke="#000" stroke-linecap="round" stroke-linejoin="round" stroke-miterlimit="10" stroke-width="3.996"/>
  </g>
</svg>
